<svg xmlns="http://www.w3.org/2000/svg" width="40" height="40" viewBox="0 0 40 40">
  <g id="Lead_Management" data-name="Lead Management" transform="translate(-32 -137)">
    <rect id="Rectangle_119" data-name="Rectangle 119" width="40" height="40" rx="10" transform="translate(32 137)" fill="#9fc356" opacity="0.3"/>
    <g id="people_around" data-name="people around" transform="translate(40 145)">
      <path id="Path_43" data-name="Path 43" d="M15.366,13.775a.833.833,0,0,1-.754-1.186A4.112,4.112,0,0,0,15,10.833a4.167,4.167,0,1,0-8.333,0,4.112,4.112,0,0,0,.388,1.756.833.833,0,1,1-1.51.7A5.775,5.775,0,0,1,5,10.833a5.833,5.833,0,1,1,11.122,2.461A.835.835,0,0,1,15.366,13.775Z" transform="translate(-0.833 -0.833)" fill="#fff"/>
      <path id="Path_44" data-name="Path 44" d="M17.791,15.658a.833.833,0,0,1-.7-1.275A8.333,8.333,0,1,0,1.667,10a8.254,8.254,0,0,0,1.248,4.383.833.833,0,0,1-1.412.884A10,10,0,1,1,20,10a9.907,9.907,0,0,1-1.5,5.267A.83.83,0,0,1,17.791,15.658Z" fill="#fff"/>
      <g id="Group_311" data-name="Group 311" transform="translate(5 8.333)">
        <circle id="Ellipse_5" data-name="Ellipse 5" cx="2.5" cy="2.5" r="2.5" transform="translate(2.5)" fill="#9fc356"/>
        <path id="Path_45" data-name="Path 45" d="M13.5,17h-5A2.5,2.5,0,0,0,6,19.5V22a.833.833,0,0,0,.833.833h8.333A.833.833,0,0,0,16,22V19.5A2.5,2.5,0,0,0,13.5,17Z" transform="translate(-6 -11.167)" fill="#9fc356"/>
      </g>
    </g>
  </g>
</svg>
