<svg xmlns="http://www.w3.org/2000/svg" width="40" height="40" viewBox="0 0 40 40">
  <g id="Offers" transform="translate(-28 -132)">
    <rect id="Rectangle_117" data-name="Rectangle 117" width="40" height="40" rx="10" transform="translate(28 132)" fill="#9fc356" opacity="0.3"/>
    <g id="megaphone" transform="translate(36 140)">
      <path id="Path_42" data-name="Path 42" d="M5.667,15H4v5a2.5,2.5,0,1,0,5,0V15H5.667Z" transform="translate(-0.667 -2.501)" fill="#9fc356"/>
      <path id="Path_41" data-name="Path 41" d="M19.451.051A.836.836,0,0,0,18.528.3c-.039.047-4,4.7-9.361,4.7H3.333A3.337,3.337,0,0,0,0,8.334V10a3.337,3.337,0,0,0,3.333,3.334H9.167c5.361,0,9.322,4.654,9.36,4.7A.834.834,0,0,0,20,17.5V.834A.832.832,0,0,0,19.451.051ZM18.333,15.5A14.685,14.685,0,0,0,10,11.7V6.634a14.68,14.68,0,0,0,8.333-3.8Z" transform="translate(0 -0.002)" fill="#fff"/>
    </g>
  </g>
</svg>
