<svg xmlns="http://www.w3.org/2000/svg" width="40" height="40" viewBox="0 0 40 40">
  <g id="POC" transform="translate(-32 -128)">
    <rect id="Rectangle_118" data-name="Rectangle 118" width="40" height="40" rx="10" transform="translate(32 128)" fill="#9fc356" opacity="0.3"/>
    <g id="business_talk" data-name="business talk" transform="translate(42 138)">
      <circle id="Ellipse_4" data-name="Ellipse 4" cx="2.5" cy="2.5" r="2.5" transform="translate(2.5 8.333)" fill="#fff"/>
      <path id="Path_39" data-name="Path 39" d="M7.5,17h-5A2.5,2.5,0,0,0,0,19.5V22a.833.833,0,0,0,.833.833H9.167A.833.833,0,0,0,10,22V19.5A2.5,2.5,0,0,0,7.5,17Z" transform="translate(0 -2.833)" fill="#fff"/>
      <path id="Path_40" data-name="Path 40" d="M19.167,0H12.5A2.5,2.5,0,0,0,10,2.5v8.333a.834.834,0,0,0,.514.77.823.823,0,0,0,.319.063.834.834,0,0,0,.589-.244l2.257-2.256h5.487a2.5,2.5,0,0,0,2.5-2.5V2.5A2.5,2.5,0,0,0,19.167,0Z" transform="translate(-1.667)" fill="#9fc356"/>
    </g>
  </g>
</svg>
