<svg xmlns="http://www.w3.org/2000/svg" width="40" height="40" viewBox="0 0 40 40">
  <g id="Product_Features" data-name="Product Features" transform="translate(-26 -136)">
    <rect id="Rectangle_116" data-name="Rectangle 116" width="40" height="40" rx="10" transform="translate(26 136)" fill="#9fc356" opacity="0.3"/>
    <g id="newspaper" transform="translate(36 146)">
      <path id="Path_47" data-name="Path 47" d="M21.021,23h0a2.979,2.979,0,0,1-2.979-2.979V7.917H24v12.1A2.979,2.979,0,0,1,21.021,23Z" transform="translate(-4 -3)" fill="#9fc356"/>
      <path id="Path_46" data-name="Path 46" d="M14.605,18.292V16.966l-.034-.057v-15A.863.863,0,0,0,13.762,1H.81A.863.863,0,0,0,0,1.909V17.364A3.458,3.458,0,0,0,3.238,21H17l0,0A2.574,2.574,0,0,1,14.605,18.292Zm-4.082-1.837H4.048a.915.915,0,0,1,0-1.818h6.476a.915.915,0,0,1,0,1.818Zm0-3.636H4.048a.915.915,0,0,1,0-1.818h6.476a.915.915,0,0,1,0,1.818Zm.81-4.545h-8.1V4.636h8.1Z" transform="translate(0 -1)" fill="#fff"/>
    </g>
  </g>
</svg>
